<svg xmlns="http://www.w3.org/2000/svg" viewBox="0 0 1323.98 1309.92"><defs><style>.cls-1{fill:#fbd900;fill-rule:evenodd;}</style></defs><g id="Layer_1" data-name="Layer 1"><polygon class="cls-1" points="494.74 1070.99 522.85 1309.92 669.02 1141.27 846.11 1276.19 840.49 1118.78 1020.39 1211.54 941.68 1051.31 1138.45 1070.99 1017.58 944.5 1132.83 961.36 1076.61 871.41 1301.49 888.27 1065.37 758.97 1234.03 708.37 1090.67 618.42 1323.98 491.93 1076.61 489.11 1132.83 351.38 997.9 385.11 1169.38 137.74 922.01 300.78 919.2 188.34 803.95 267.05 778.65 44.98 643.72 244.56 390.73 0 435.7 306.4 59.03 216.45 261.42 545.33 0 680.26 244.56 764.59 104.01 885.46 269.86 860.16 165.85 1127.21 354.19 1011.96 328.89 1141.27 401.97 1068.18 362.62 1253.7 494.74 1070.99"/></g></svg>